<svg width="22" height="22" viewBox="0 0 22 22" fill="none" xmlns="http://www.w3.org/2000/svg">
<path fill-rule="evenodd" clip-rule="evenodd" d="M11 22C4.92487 22 0 17.0751 0 11C0 4.92487 4.92487 0 11 0C17.0751 0 22 4.92487 22 11C22 17.0751 17.0751 22 11 22ZM19.8678 12.5458C17.9343 12.0966 16.1266 11.981 14.4388 12.2017C15.2798 14.2769 15.892 16.3073 16.2746 18.2932C18.1353 16.9452 19.4598 14.9025 19.8678 12.5458ZM14.4278 19.3242C14.0688 17.1639 13.4112 14.9334 12.4539 12.6332C9.76653 13.4645 7.41445 15.2568 5.37025 18.0222C6.91178 19.2597 8.86943 20 11 20C12.2137 20 13.3713 19.7597 14.4278 19.3242ZM3.94537 16.5892C6.15165 13.6878 8.72193 11.7533 11.6326 10.7959C11.4449 10.4028 11.2487 10.0076 11.044 9.61053C10.5271 9.74857 9.99132 9.86779 9.43729 9.96907C7.20661 10.3769 5.2731 10.4563 2.13698 10.4115C2.09583 10.4109 2.05656 10.4103 2.01904 10.4098C2.00641 10.6049 2 10.8017 2 11C2 13.1119 2.72742 15.0539 3.94537 16.5892ZM2.3769 8.41451C3.09049 6.03114 4.76522 4.06297 6.9511 2.96001C8.11789 4.60237 9.15329 6.21462 10.0576 7.79662C9.7397 7.87209 9.41298 7.94037 9.07763 8.00167C7.05998 8.37052 5.26498 8.451 2.3769 8.41451ZM8.89553 2.24738C10.0661 3.92295 11.1064 5.57259 12.016 7.19642C13.9327 6.4552 15.4205 5.35363 16.4343 3.82525C14.9243 2.67974 13.0415 2 11 2C10.2753 2 9.57064 2.08565 8.89553 2.24738ZM17.9011 5.22255C19.1159 6.67214 19.8825 8.51014 19.9876 10.5233C17.7255 10.0358 15.5982 9.96381 13.6121 10.3045C13.4063 9.86284 13.1904 9.4192 12.9645 8.97357C15.0254 8.13959 16.694 6.91484 17.9011 5.22255Z" fill="white"/>
</svg>
