<svg width="30" height="30" viewBox="0 0 30 30" fill="none" xmlns="http://www.w3.org/2000/svg">
<path d="M20.3411 3.09783H1.55525C0.69577 3.09783 0 2.40489 0 1.54891C0 0.692935 0.69577 0 1.55525 0H20.3411C21.2005 0 21.8963 0.692935 21.8963 1.54891C21.8963 2.40489 21.2005 3.09783 20.3411 3.09783Z" fill="white"/>
<path d="M28.4447 16.5489H1.55525C0.695771 16.5489 0 15.856 0 15C0 14.144 0.695771 13.4511 1.55525 13.4511H28.4447C29.3042 13.4511 30 14.144 30 15C30 15.856 29.3042 16.5489 28.4447 16.5489Z" fill="white"/>
<path d="M20.3411 30H1.55525C0.69577 30 0 29.3071 0 28.4511C0 27.5951 0.69577 26.9022 1.55525 26.9022H20.3411C21.2005 26.9022 21.8963 27.5951 21.8963 28.4511C21.8963 29.3071 21.2005 30 20.3411 30Z" fill="white"/>
</svg>
